<svg width="329" height="44" viewBox="0 0 329 44" fill="none" xmlns="http://www.w3.org/2000/svg">
<path d="M63.7471 3.24542C60.0255 3.24542 57.0684 4.26923 54.8903 6.31684C52.7121 8.36445 51.6158 11.2937 51.6158 15.1045V22.2285C51.6158 24.7738 52.1063 26.9209 53.1016 28.6984C54.0969 30.4616 55.424 31.8124 57.0973 32.7225C58.7706 33.6468 60.6458 34.1018 62.7085 34.1018C64.252 34.1018 65.4781 33.9169 66.358 33.5472C67.2523 33.1775 67.9159 32.7225 68.3631 32.1964C68.8102 31.656 69.1276 31.1441 69.3295 30.6749H70.1085V33.5188H75.3591V18.3323H62.6364V23.0817H69.7767V23.5082C69.7767 25.1435 69.3007 26.5086 68.3631 27.575C67.411 28.6557 65.9108 29.1818 63.8481 29.1818C61.7853 29.1818 60.1842 28.5562 59.0302 27.2906C57.8906 26.0393 57.3136 24.3756 57.3136 22.3138V15.0192C57.3136 12.9289 57.8906 11.2795 59.0302 10.0566C60.1698 8.84791 61.7565 8.23647 63.7615 8.23647C65.1031 8.23647 66.2282 8.47821 67.1081 8.97589C68.0024 9.47357 68.666 10.1419 69.1132 10.9951C69.5603 11.8482 69.7767 12.7867 69.7767 13.839V14.1802H75.3591V14.0096C75.3591 10.7107 74.3494 8.08006 72.3299 6.14621C70.3104 4.21235 67.4543 3.24542 63.7471 3.24542Z" fill="black"/>
<path d="M97.4724 11.3505C95.7847 10.3552 93.7941 9.84326 91.5149 9.84326C89.1926 9.84326 87.1587 10.3267 85.4132 11.3079C83.6534 12.2748 82.2975 13.6541 81.331 15.4315C80.3646 17.209 79.8741 19.2992 79.8741 21.7023V22.2569C79.8741 24.66 80.3646 26.7503 81.3599 28.5277C82.3408 30.3052 83.7255 31.6702 85.4854 32.6514C87.2596 33.6183 89.2935 34.116 91.6159 34.116C93.7508 34.116 95.4962 33.7889 96.881 33.1206C98.2513 32.4523 99.3621 31.656 100.199 30.7175C101.021 29.779 101.656 28.8974 102.103 28.1011L97.2705 25.5985C96.8666 26.4659 96.2751 27.248 95.4818 27.9589C94.7028 28.6699 93.4767 29.0254 91.8179 29.0254C90.1879 29.0254 88.8175 28.5277 87.6924 27.5466C86.5672 26.5654 85.9758 25.2857 85.9037 23.7073H102.853V21.7166C102.853 19.3703 102.377 17.3085 101.439 15.5311C100.473 13.7394 99.1601 12.3601 97.4724 11.3505ZM85.9181 19.3419C86.1345 18.0195 86.7115 16.953 87.6491 16.1425C88.5867 15.3462 89.8561 14.9339 91.4572 14.9339C92.9863 14.9339 94.2412 15.332 95.1933 16.1425C96.1453 16.9388 96.6935 18.0053 96.8089 19.3419H85.9181Z" fill="black"/>
<path d="M117.004 3.37341L111.089 4.46832V10.4974H105.262V15.3178H111.089V28.286C111.089 29.8644 111.565 31.1157 112.517 32.0542C113.47 32.9927 114.71 33.4619 116.253 33.4619H122.831V28.6415H118.331C117.451 28.6415 117.018 28.1723 117.018 27.248V15.3036H123.408V10.4974H117.004V3.37341Z" fill="black"/>
<path d="M143.56 20.5648C142.132 20.0529 140.545 19.6405 138.8 19.3419L137.487 19.1002C136.419 18.9153 135.583 18.6451 134.948 18.2897C134.328 17.9342 134.01 17.3938 134.01 16.6402C134.01 15.9577 134.313 15.4315 134.905 15.0476C135.496 14.6637 136.362 14.4646 137.487 14.4646C138.612 14.4646 139.564 14.7063 140.329 15.204C141.093 15.7017 141.598 16.5264 141.858 17.7067L147.353 16.043C146.82 14.1944 145.695 12.7014 143.978 11.5496C142.261 10.412 140.098 9.84326 137.501 9.84326C134.746 9.84326 132.525 10.4547 130.837 11.6776C129.149 12.9005 128.298 14.6495 128.298 16.9246C128.298 18.4319 128.702 19.669 129.524 20.6217C130.332 21.5744 131.414 22.328 132.77 22.8683C134.111 23.4087 135.597 23.8353 137.227 24.1481L138.54 24.3756C139.91 24.6173 140.92 24.9444 141.54 25.3283C142.16 25.7122 142.478 26.2668 142.478 26.9778C142.478 27.6888 142.146 28.286 141.497 28.7552C140.833 29.2387 139.824 29.4662 138.439 29.4662C137.53 29.4662 136.693 29.3382 135.929 29.0681C135.164 28.8121 134.515 28.3713 134.01 27.7456C133.491 27.1342 133.131 26.281 132.9 25.2003L127.447 26.5939C127.851 28.997 129.034 30.8455 130.967 32.1537C132.914 33.4477 135.395 34.1018 138.439 34.1018C141.41 34.1018 143.79 33.4477 145.55 32.1395C147.325 30.8313 148.204 28.9685 148.204 26.5654C148.204 24.9586 147.786 23.6931 146.964 22.7404C146.113 21.8019 144.988 21.0767 143.56 20.5648Z" fill="black"/>
<path d="M162.557 3.37341L156.643 4.46832V10.4974H150.815V15.3178H156.643V28.286C156.643 29.8644 157.119 31.1157 158.071 32.0542C159.023 32.9927 160.264 33.4619 161.807 33.4619H168.385V28.6415H163.884C163.004 28.6415 162.572 28.1723 162.572 27.248V15.3036H168.962V10.4974H162.572V3.37341H162.557Z" fill="black"/>
<path d="M193.917 27.248V18.6878C193.917 15.8155 193.022 13.6257 191.234 12.1184C189.445 10.6111 187.022 9.85748 183.949 9.85748C181.944 9.85748 180.242 10.1561 178.857 10.7533C177.458 11.3505 176.347 12.1468 175.525 13.1138C174.703 14.0807 174.097 15.1614 173.722 16.3274L179.175 18.1332C179.391 17.081 179.867 16.2278 180.588 15.5595C181.309 14.8912 182.406 14.5641 183.877 14.5641C185.377 14.5641 186.474 14.9054 187.166 15.6022C187.858 16.2989 188.205 17.1805 188.205 18.2612V19.5552H181.814C180.054 19.5552 178.497 19.8254 177.141 20.3657C175.785 20.9061 174.717 21.7023 173.953 22.7688C173.188 23.8353 172.799 25.1577 172.799 26.7218C172.799 28.3002 173.188 29.6368 173.953 30.7317C174.717 31.8266 175.756 32.6656 177.069 33.2344C178.381 33.8032 179.867 34.0876 181.526 34.0876C183.156 34.0876 184.44 33.86 185.377 33.3908C186.315 32.9216 187.007 32.3954 187.44 31.7982C187.873 31.201 188.161 30.7175 188.291 30.3336H189.185V30.3763C189.185 31.3005 189.56 32.0399 190.311 32.5945C191.061 33.1491 192.013 33.4335 193.181 33.4335H197.119V28.613H195.244C194.364 28.6415 193.917 28.1864 193.917 27.248ZM188.19 24.3898C188.19 25.8971 187.671 27.12 186.618 28.03C185.565 28.9401 184.209 29.3951 182.55 29.3951C181.295 29.3951 180.343 29.1392 179.679 28.613C179.016 28.0869 178.699 27.4044 178.699 26.5796C178.699 25.7407 179.016 25.1008 179.636 24.6316C180.256 24.1623 181.122 23.9348 182.218 23.9348H188.176V24.3898H188.19Z" fill="black"/>
<path d="M223.603 10.4974H215.9L208.197 18.9722H207.346V3.24542L201.432 4.35455V33.4619H207.346V24.333H208.197L216.362 33.4619H223.978L212.842 21.6028L223.603 10.4974Z" fill="black"/>
<path d="M242.99 11.3505C241.302 10.3552 239.312 9.84326 237.033 9.84326C234.71 9.84326 232.676 10.3267 230.931 11.3079C229.171 12.2748 227.815 13.6541 226.849 15.4315C225.882 17.209 225.392 19.2992 225.392 21.7023V22.2569C225.392 24.66 225.882 26.7503 226.877 28.5277C227.858 30.3052 229.243 31.6702 231.003 32.6514C232.777 33.6183 234.811 34.116 237.134 34.116C239.268 34.116 241.014 33.7889 242.399 33.1206C243.769 32.4523 244.88 31.656 245.716 30.7175C246.539 29.779 247.173 28.8974 247.62 28.1011L242.788 25.5985C242.384 26.4659 241.793 27.248 240.999 27.9589C240.22 28.6699 238.994 29.0254 237.335 29.0254C235.705 29.0254 234.335 28.5277 233.21 27.5466C232.085 26.5654 231.493 25.2857 231.421 23.7073H248.37V21.7166C248.37 19.3703 247.894 17.3085 246.957 15.5311C246.005 13.7394 244.678 12.3601 242.99 11.3505ZM231.436 19.3419C231.652 18.0195 232.229 16.953 233.167 16.1425C234.104 15.3462 235.374 14.9339 236.975 14.9339C238.504 14.9339 239.759 15.332 240.711 16.1425C241.663 16.9388 242.211 18.0053 242.326 19.3419H231.436Z" fill="black"/>
<path d="M255.944 26.8925C254.934 26.8925 254.083 27.2196 253.39 27.8737C252.698 28.5278 252.352 29.3809 252.352 30.4332C252.352 31.4712 252.698 32.3244 253.39 32.9927C254.083 33.6468 254.934 33.9738 255.944 33.9738C256.982 33.9738 257.833 33.6468 258.511 32.9927C259.189 32.3386 259.535 31.4854 259.535 30.4332C259.535 29.3952 259.189 28.542 258.511 27.8737C257.848 27.2338 256.982 26.8925 255.944 26.8925Z" fill="black"/>
<path d="M283.12 11.3506C281.764 10.5401 280.163 10.1277 278.36 10.1277C276.268 10.1277 274.696 10.4974 273.657 11.2226C272.619 11.9478 271.926 12.7156 271.551 13.5119H270.7V10.4974H264.872V33.4619H270.787V21.8019C270.787 19.669 271.292 18.0195 272.287 16.8251C273.282 15.6306 274.696 15.0476 276.513 15.0476C278.114 15.0476 279.341 15.4742 280.206 16.3416C281.072 17.209 281.504 18.503 281.504 20.2235V33.4619H287.419V19.7543C287.419 17.8347 287.043 16.171 286.293 14.7348C285.529 13.2986 284.476 12.1753 283.12 11.3506Z" fill="black"/>
<path d="M311.364 13.2702H310.513C310.008 12.4739 309.214 11.6918 308.118 10.9524C307.022 10.213 305.406 9.84326 303.286 9.84326C301.382 9.84326 299.622 10.2983 298.006 11.2083C296.391 12.1184 295.107 13.4266 294.126 15.1471C293.16 16.8535 292.669 18.9153 292.669 21.3326V22.0721C292.669 24.4752 293.16 26.537 294.126 28.2575C295.093 29.9639 296.391 31.2863 298.006 32.1964C299.622 33.1064 301.382 33.5614 303.286 33.5614C304.728 33.5614 305.911 33.3908 306.849 33.0495C307.786 32.7083 308.536 32.2817 309.099 31.7698C309.662 31.2579 310.094 30.7602 310.412 30.2625H311.263V36.2347C311.263 37.159 310.83 37.6282 309.95 37.6282H296.42V42.7188H312.013C313.571 42.7188 314.826 42.2496 315.763 41.3111C316.701 40.3726 317.177 39.107 317.177 37.5429V10.4974H311.349V13.2702H311.364ZM311.364 21.9299C311.364 23.9917 310.758 25.5985 309.532 26.7503C308.306 27.8878 306.791 28.4566 304.974 28.4566C303.156 28.4566 301.641 27.8878 300.415 26.7503C299.189 25.6127 298.583 24.0059 298.583 21.9299V21.4606C298.583 19.3561 299.189 17.7493 300.415 16.626C301.641 15.5026 303.156 14.9339 304.974 14.9339C306.82 14.9339 308.349 15.5026 309.546 16.626C310.758 17.7493 311.349 19.3703 311.349 21.4606V21.9299H311.364Z" fill="black"/>
<path d="M324.851 10.4974C322.658 10.4974 320.87 12.2607 320.87 14.422C320.87 16.5834 322.658 18.3466 324.851 18.3466C327.044 18.3466 328.832 16.5834 328.832 14.422C328.847 12.2607 327.058 10.4974 324.851 10.4974ZM324.851 17.6641C323.048 17.6641 321.577 16.2137 321.577 14.422C321.577 12.6446 323.048 11.1942 324.851 11.1942C326.654 11.1942 328.14 12.6446 328.14 14.422C328.14 16.2137 326.668 17.6641 324.851 17.6641Z" fill="black"/>
<path d="M325.76 12.602C325.572 12.5167 325.356 12.474 325.111 12.474H323.38V16.3986H324.13V14.9198H325.169C325.284 14.9198 325.356 14.9482 325.399 15.0051C325.443 15.062 325.471 15.133 325.471 15.2184V16.3986H326.222V15.1188C326.222 14.9624 326.178 14.8344 326.092 14.7349C326.005 14.6354 325.89 14.5927 325.746 14.5785V14.479C325.919 14.4079 326.048 14.3083 326.164 14.1661C326.279 14.0239 326.337 13.8249 326.337 13.5973V13.5262C326.337 13.313 326.279 13.1281 326.178 12.9717C326.077 12.8153 325.933 12.6873 325.76 12.602ZM325.587 13.7253C325.587 13.8817 325.529 14.0097 325.443 14.1092C325.342 14.2088 325.197 14.2514 325.024 14.2514H324.13V13.1423H325.024C325.212 13.1423 325.342 13.185 325.443 13.2845C325.544 13.384 325.587 13.512 325.587 13.6684V13.7253Z" fill="black"/>
<path d="M10.6638 5.43526L8.4568 8.29338L5.06697 12.7299L2.87439 15.5738L1.07129 17.92L3.01864 19.3846C4.3313 20.3658 6.1921 20.124 7.18741 18.83L9.37999 15.9861L12.7698 11.5497L14.9624 8.69153L21.3237 0.401545L14.5441 0.358887L10.6638 5.43526Z" fill="black"/>
<path d="M14.2994 24.2192L16.4775 21.3611L19.8818 16.9246L15.5832 13.6683L12.1789 18.1048L10.0008 20.963L8.18325 23.295L0.465971 33.3766L0.437121 36.1636C0.422697 37.7704 0.94199 39.2635 1.83633 40.4721L12.5107 26.5654L14.2994 24.2192Z" fill="black"/>
<path d="M21.5257 29.6653L17.2127 26.4091L15.4096 28.7553L4.63422 42.8042C5.6151 43.2876 6.72582 43.5578 7.8798 43.5578L10.8513 43.572L19.7226 32.0115L21.5257 29.6653Z" fill="black"/>
<path d="M37.3641 30.1203L33.9743 34.5426L31.7817 37.4007C30.7864 38.6947 31.0316 40.5432 32.3442 41.5244L34.2916 43.0032L36.0947 40.6712L38.2873 37.8131L41.6771 33.3908L43.8697 30.5327L44.3457 29.907L44.389 20.963L39.5567 27.2622L37.3641 30.1203Z" fill="black"/>
<path d="M22.0882 14.0808L32.5318 0.458491L25.7521 0.415833L17.7752 10.8245L22.0882 14.0808Z" fill="black"/>
<path d="M22.795 19.1144L19.4052 23.5509L23.7182 26.8072L27.1081 22.3707L29.3006 19.5125L42.2541 2.61974C40.927 1.31155 39.1095 0.501036 37.09 0.486816L24.9876 16.2563L22.795 19.1144Z" fill="black"/>
<path d="M36.6717 25.0867L44.4323 14.9624L44.4756 7.89526C44.4756 7.32648 44.4179 6.80035 44.288 6.27423L32.3587 21.8304L36.6717 25.0867Z" fill="black"/>
<path d="M28.8968 35.2394L31.0894 32.367L34.4936 27.9447L30.1806 24.6885L26.7619 29.1107L24.5838 31.9689L22.7807 34.3151L15.6692 43.6004L22.4489 43.6431L27.0937 37.5714L28.8968 35.2394Z" fill="black"/>
</svg>
