<svg width="68" height="68" viewBox="0 0 68 68" fill="none" xmlns="http://www.w3.org/2000/svg">
<rect y="3" width="68" height="63" rx="8" fill="#F9F9FB"/>
<g clip-path="url(#clip0_678_3507)">
<path d="M34 58C47.2548 58 58 47.2548 58 34C58 20.7452 47.2548 10 34 10C20.7452 10 10 20.7452 10 34C10 47.2548 20.7452 58 34 58Z" fill="#94BEFF"/>
<path d="M39.4688 32.4688H37.2812V28.0938C37.2812 26.2781 35.8156 24.8125 34 24.8125C32.1844 24.8125 30.7188 26.2781 30.7188 28.0938V32.4688H28.5312V28.0938C28.5312 25.075 30.9812 22.625 34 22.625C37.0188 22.625 39.4688 25.075 39.4688 28.0938V32.4688Z" fill="white"/>
<path d="M47.125 47.7812H20.875V39.0312L21.9688 37.9376L20.875 36.8438V28.0938H47.125V36.8438L46.0312 37.9376L47.125 39.0312V47.7812Z" fill="#125BC9"/>
<path d="M47.125 39.0312H36.1876L34 37.9376L31.8124 39.0312H20.875V36.8438H47.125V39.0312Z" fill="#0E49A1"/>
<path d="M36.1876 34.6562H31.8124V39.0312H36.1876V34.6562Z" fill="white"/>
</g>
<defs>
<clipPath id="clip0_678_3507">
<rect width="48" height="48" fill="white" transform="translate(10 10)"/>
</clipPath>
</defs>
</svg>
