<svg width="68" height="68" viewBox="0 0 68 68" fill="none" xmlns="http://www.w3.org/2000/svg">
<rect y="3" width="68" height="63" rx="8" fill="#F9F9FB"/>
<path d="M35.3305 32.8551L33.3122 29.7985L29.6559 29.579L28.0178 32.4163L30.0359 35.473L33.6922 35.6925L35.3305 32.8551Z" fill="white"/>
<path d="M20.5678 49.4326H17.2916V52.7088H20.5678V49.4326Z" fill="#D9E7FC"/>
<path d="M33.6396 52.7086C32.362 52.7086 31.1825 51.9878 30.5928 50.8412L30.134 49.924C30.1013 49.8257 30.0686 49.8257 30.036 49.8257C29.9703 49.8257 29.872 49.8911 29.7736 50.0221C29.741 50.0877 29.6756 50.1861 29.6099 50.2515L28.8564 51.136C28.0046 52.1188 26.7597 52.7086 25.4492 52.7086H23.8112V49.4326H25.4492C25.8096 49.4326 26.1372 49.2686 26.3665 49.0066L27.0545 48.2204C27.7753 47.1392 28.9547 46.5168 30.167 46.5495C31.4119 46.6151 32.4931 47.3029 33.0499 48.4498L33.5086 49.367C33.5413 49.3997 33.5413 49.4326 33.6396 49.4326C33.738 49.4326 33.738 49.367 33.738 49.3343L34.8518 45.7633C35.3106 44.2561 36.6208 43.2079 38.1934 43.0439C39.766 42.9129 41.2403 43.6993 41.9938 45.0752C42.0265 45.1079 42.0265 45.1408 42.0594 45.1735L43.6318 48.7118C43.8611 49.1049 44.1561 49.3016 44.6146 49.367C45.3354 49.4653 46.1545 49.1703 46.777 48.5478L47.9235 47.4013L50.2496 49.7274L49.103 50.8739C47.7925 52.1845 45.8924 52.8725 44.1561 52.6105C42.6489 52.3811 41.437 51.5293 40.7489 50.2188C40.7162 50.1861 40.7162 50.1531 40.6832 50.1204L39.1109 46.5822C38.9469 46.3201 38.6849 46.2874 38.5538 46.2874C38.3901 46.2874 38.128 46.3857 38.0297 46.7132L36.9158 50.2844C36.4898 51.6274 35.3432 52.5448 33.9344 52.6759C33.8363 52.7086 33.738 52.7086 33.6396 52.7086Z" fill="#D9E7FC"/>
<path d="M21.6817 49.9429C21.4428 46.0976 22.3335 42.2614 24.2501 38.9419L28.0177 32.4163L33.6923 35.6925L29.9246 42.2181C28.008 45.5376 25.1312 48.227 21.6817 49.9429Z" fill="#125BC9"/>
<path d="M29.6559 29.579L35.3302 32.8551L36.9684 30.0179L40.6835 17.0309L37.8461 15.3928L29.6559 29.579Z" fill="#1E293B"/>
<path d="M42.1019 17.8503L43.7399 15.0131L40.9027 13.375L39.2647 16.2122L40.6832 17.0313L34.131 28.3802L36.9681 30.0183L43.5203 18.6693L42.1019 17.8503Z" fill="#125BC9"/>
</svg>
