<svg width="68" height="68" viewBox="0 0 68 68" fill="none" xmlns="http://www.w3.org/2000/svg">
<rect y="3" width="68" height="63" rx="8" fill="#F9F9FB"/>
<path d="M30.9156 50.1667C37.869 50.1667 43.5058 44.5553 43.5058 37.6333C43.5058 30.7114 37.869 25.1 30.9156 25.1C23.9622 25.1 18.3254 30.7114 18.3254 37.6333C18.3254 44.5553 23.9622 50.1667 30.9156 50.1667Z" fill="url(#paint0_linear_676_3292)"/>
<path d="M49.232 37.4253C49.232 27.2174 40.8959 18.919 30.605 18.919C30.5312 18.919 30.4574 18.919 30.4205 18.919C19.7607 19.0292 11.2402 28.0987 12.0886 38.894C12.7894 47.9268 20.1295 55.2339 29.2402 55.8948C40.1214 56.7027 49.232 48.1104 49.232 37.4253ZM30.6419 52.2963C22.0476 52.2963 15.1501 45.0628 15.7771 36.3972C16.2935 29.0902 22.232 23.1417 29.5722 22.6276C29.8673 22.5909 30.1623 22.5909 30.4205 22.5909C38.7197 22.4807 45.5435 29.1636 45.5435 37.4253C45.5435 45.6136 38.8673 52.2963 30.6419 52.2963Z" fill="#DFE8F4"/>
<path d="M30.7894 20.9018H29.6829V21.4526H30.7894V20.9018Z" fill="#231F20"/>
<path d="M30.7894 36.0299H29.6829V35.0018H30.7894V36.0299ZM30.7894 33.9369H29.6829V32.9088H30.7894V33.9369ZM30.7894 31.844H29.6829V30.8159H30.7894V31.844ZM30.7894 29.7878H29.6829V28.7597H30.7894V29.7878ZM30.7894 27.6948H29.6829V26.6667H30.7894V27.6948ZM30.7894 25.6018H29.6829V24.5737H30.7894V25.6018ZM30.7894 23.5456H29.6829V22.5174H30.7894V23.5456Z" fill="#231F20"/>
<path d="M30.7894 37.058H29.6829V38.1596H30.7894V37.058Z" fill="#231F20"/>
<path d="M48.3099 38.1596H47.2034V37.058H48.3099V38.1596ZM46.1337 38.1596H45.0272V37.058H46.1337V38.1596ZM43.9206 38.1596H42.8141V37.058H43.9206V38.1596ZM41.7444 38.1596H40.6378V37.058H41.7444V38.1596ZM39.5682 38.1596H38.4616V37.058H39.5682V38.1596ZM37.3551 38.1596H36.2485V37.058H37.3551V38.1596ZM35.1788 38.1596H34.0722V37.058H35.1788V38.1596ZM32.9656 38.1596H31.8591V37.058H32.9656V38.1596Z" fill="#231F20"/>
<path d="M49.9698 37.058H49.4165V38.1596H49.9698V37.058Z" fill="#231F20"/>
<path d="M55.3918 38.1597H49.232V37.0581H54.2853C53.9902 24.2799 43.6254 13.962 30.7894 13.6682V19.0659H29.6829V12.5667H30.2361C44.105 12.5667 55.3918 23.8026 55.3918 37.6089V38.1597Z" fill="#231F20"/>
<defs>
<linearGradient id="paint0_linear_676_3292" x1="13.9801" y1="11.5684" x2="30.7873" y2="50.2225" gradientUnits="userSpaceOnUse">
<stop offset="0.192754" stop-color="#125BC9"/>
</linearGradient>
</defs>
</svg>
