<svg width="23" height="21" viewBox="0 0 23 21" fill="none" xmlns="http://www.w3.org/2000/svg">
<g clip-path="url(#clip0_169_196)">
<path d="M5.33462 2.45827L4.19064 3.84724L2.40844 6.00787L1.26446 7.38583L0.325195 8.53228L1.33671 9.24882C2.0231 9.72284 2.99849 9.60158 3.51629 8.97323L4.66027 7.59528L6.43043 5.44567L7.58645 4.04567L10.91 0.0220472L7.3697 0L5.33462 2.45827Z" fill="#1E1E1E"/>
<path d="M7.24921 11.5858L8.39319 10.1968L10.1754 8.04724L7.91152 6.45984L6.12932 8.60945L4.98534 9.99842L4.04607 11.1339L0.0120419 16.0283L0 17.3732C0 18.1559 0.264921 18.8724 0.734555 19.4567L6.30995 12.7102L7.24921 11.5858Z" fill="#1E1E1E"/>
<path d="M11.0064 14.2205L8.75456 12.6441L7.81529 13.7795L2.17969 20.6032C2.69749 20.8347 3.2755 20.9669 3.87759 20.9669L5.431 20.978L10.0671 15.3669L11.0064 14.2205Z" fill="#1E1E1E"/>
<path d="M19.2911 14.4409L17.521 16.5905L16.377 17.9795C15.8592 18.6079 15.9917 19.5008 16.666 19.9858L17.6896 20.7024L18.6288 19.5669L19.7728 18.1779L21.543 16.0283L22.6869 14.6394L22.9278 14.3417L22.9519 9.99841L20.4231 13.063L19.2911 14.4409Z" fill="#1E1E1E"/>
<path d="M11.3073 6.65828L16.7622 0.0441047L13.2219 0.0330811L9.05542 5.07088L11.3073 6.65828Z" fill="#1E1E1E"/>
<path d="M11.6806 9.10553L9.9104 11.2551L12.1622 12.8315L13.9324 10.6819L15.0764 9.29293L21.8439 1.10238C21.1575 0.463012 20.2062 0.0771857 19.1465 0.0661621L12.8245 7.71656L11.6806 9.10553Z" fill="#1E1E1E"/>
<path d="M18.9298 12.0047L22.9879 7.0882L23.012 3.65985C23.012 3.38426 22.9879 3.13072 22.9157 2.86615L16.678 10.4173L18.9298 12.0047Z" fill="#1E1E1E"/>
<path d="M14.8718 16.9212L16.0038 15.5323L17.786 13.3827L15.5341 11.8063L13.7519 13.9559L12.608 15.3449L11.6687 16.4803L7.94775 20.989L11.4881 21L13.9326 18.0567L14.8718 16.9212Z" fill="#1E1E1E"/>
</g>
<defs>
<clipPath id="clip0_169_196">
<rect width="23" height="21" fill="white"/>
</clipPath>
</defs>
</svg>
