<svg width="68" height="68" viewBox="0 0 68 68" fill="none" xmlns="http://www.w3.org/2000/svg">
<rect y="3" width="68" height="63" rx="8" fill="#F9F9FB"/>
<path d="M49.6238 47.2338C49.6238 48.7626 48.3728 50.0136 46.8437 50.0136C45.3146 50.0136 43.7858 48.7626 43.7858 47.2338L41.2838 27.774H49.6238V47.2338Z" fill="#417CD4"/>
<path d="M44.0637 47.2338C44.0637 48.7626 45.3147 50.0136 46.8438 50.0136H20.1563C18.6273 50.0136 17.3763 48.7626 17.3763 47.2338V17.528C17.3763 16.1243 18.5143 14.9863 19.918 14.9863H41.522C42.9258 14.9863 44.0637 16.1243 44.0637 17.528V47.2338Z" fill="#2A6BCE"/>
<path d="M38.5041 38.8938H35.724V41.6739H38.5041V38.8938Z" fill="white"/>
<path d="M38.504 33.3339H22.9362V36.114H38.504V33.3339Z" fill="white"/>
<path d="M38.504 27.774H22.9362V30.5541H38.504V27.774Z" fill="white"/>
</svg>
