<svg width="28" height="28" viewBox="0 0 28 28" fill="none" xmlns="http://www.w3.org/2000/svg">
<g clip-path="url(#clip0_671_2071)">
<path fill-rule="evenodd" clip-rule="evenodd" d="M0 0.0351562H27.9649V28H0V0.0351562Z" fill="white"/>
<path fill-rule="evenodd" clip-rule="evenodd" d="M6.60048 2.39429H18.536V5.74921H7.07991V11.1177H8.2785V14.4731H6.60048C4.87485 14.4731 3.4371 13.0348 3.4371 11.2616V5.60527C3.4371 3.83203 4.87485 2.39429 6.60048 2.39429ZM16.7145 23.2447H16.4748V23.2928H3.86837V19.8892H16.2833V14.5207H13.0717V11.1658H16.2833V11.1177H16.7145C18.4878 11.1177 19.9261 12.6036 19.9261 14.3774V20.0331C19.9261 21.8069 18.4878 23.2447 16.7145 23.2447ZM21.3638 18.9309H20.4531V15.5278H20.8844V10.1588H12.4484V15.5278H15.7081V18.9309H12.4484V19.314H8.99709V6.37259H12.4484V6.80386H21.3638C23.0895 6.80386 24.5272 8.28977 24.5272 10.063V15.7193C24.5272 17.4926 23.0895 18.9309 21.3638 18.9309ZM8.99709 25.6413V23.8199H12.4484V25.6413H8.99709Z" fill="#010604"/>
</g>
<defs>
<clipPath id="clip0_671_2071">
<rect width="28" height="28" fill="white"/>
</clipPath>
</defs>
</svg>
