<svg width="68" height="68" viewBox="0 0 68 68" fill="none" xmlns="http://www.w3.org/2000/svg">
<rect y="3" width="68" height="63" rx="8" fill="#F9F9FB"/>
<path d="M15.3333 16.0001C15.3333 14.1591 16.8256 12.6667 18.6666 12.6667H35.9999C37.8409 12.6667 39.3333 14.1591 39.3333 16.0001V55.3334H15.3333V16.0001Z" fill="#125BC9"/>
<path d="M23.3335 35C23.3335 34.4477 23.7812 34 24.3335 34H29.0001C29.5524 34 30.0001 34.4477 30.0001 35V55.3333H23.3335V35Z" fill="#004AB9"/>
<path d="M28.6667 32.3333C28.6667 30.4924 30.1591 29 32.0001 29H49.3334C51.1744 29 52.6667 30.4924 52.6667 32.3333V55.3333H28.6667V32.3333Z" fill="#1E293B"/>
<path d="M21.3332 19.0002H18.6666C18.4825 19.0002 18.3333 19.1495 18.3333 19.3336V23.3336C18.3333 23.5177 18.4825 23.6669 18.6666 23.6669H21.3332C21.5173 23.6669 21.6666 23.5177 21.6666 23.3336V19.3336C21.6666 19.1495 21.5173 19.0002 21.3332 19.0002Z" fill="white"/>
<path d="M32 19.0002H29.3333C29.1492 19.0002 29 19.1495 29 19.3336V23.3336C29 23.5177 29.1492 23.6669 29.3333 23.6669H32C32.1841 23.6669 32.3333 23.5177 32.3333 23.3336V19.3336C32.3333 19.1495 32.1841 19.0002 32 19.0002Z" fill="white"/>
<path d="M25.3335 19.0002H22.6668C22.4827 19.0002 22.3335 19.1495 22.3335 19.3336V23.3336C22.3335 23.5177 22.4827 23.6669 22.6668 23.6669H25.3335C25.5176 23.6669 25.6668 23.5177 25.6668 23.3336V19.3336C25.6668 19.1495 25.5176 19.0002 25.3335 19.0002Z" fill="white"/>
<path d="M36 19.0002H33.3333C33.1492 19.0002 33 19.1495 33 19.3336V23.3336C33 23.5177 33.1492 23.6669 33.3333 23.6669H36C36.1841 23.6669 36.3333 23.5177 36.3333 23.3336V19.3336C36.3333 19.1495 36.1841 19.0002 36 19.0002Z" fill="white"/>
<path d="M36 45.6667C36 45.1145 36.4477 44.6667 37 44.6667H44.3333C44.8856 44.6667 45.3333 45.1145 45.3333 45.6667V55.3334H36V45.6667Z" fill="#475569"/>
</svg>
