<svg width="68" height="68" viewBox="0 0 68 68" fill="none" xmlns="http://www.w3.org/2000/svg">
<rect y="3" width="68" height="63" rx="8" fill="#F9F9FB"/>
<path d="M28.9192 43.3347L34.0829 50.0922L39.2466 43.3347C37.6529 42.6334 35.9316 42.2509 34.0829 42.2509C32.2341 42.2509 30.5129 42.6334 28.9192 43.3347Z" fill="#072450"/>
<path d="M39.2456 43.3355L34.0819 48.4993L28.9181 43.3355C25.38 44.8976 22.6388 47.9893 21.6506 51.8143H46.5131C45.5249 47.9893 42.7836 44.8976 39.2456 43.3355Z" fill="#125BC9"/>
<path d="M34.0823 40.339C37.603 40.339 40.4573 37.4847 40.4573 33.964C40.4573 30.4433 37.603 27.589 34.0823 27.589C30.5614 27.589 27.7073 30.4433 27.7073 33.964C27.7073 37.4847 30.5614 40.339 34.0823 40.339Z" fill="#125BC9"/>
<path d="M14 37.5331H23.2438V35.0469L19.4187 31.2219C16.7731 32.4014 14.765 34.7281 14 37.5331Z" fill="#1E293B"/>
<path d="M23.2444 29.0555C25.885 29.0555 28.0256 26.9148 28.0256 24.2742C28.0256 21.6336 25.885 19.493 23.2444 19.493C20.6038 19.493 18.4631 21.6336 18.4631 24.2742C18.4631 26.9148 20.6038 29.0555 23.2444 29.0555Z" fill="#D9E7FC"/>
<path d="M54.1642 37.5331C53.3992 34.6964 51.3909 32.4014 48.7454 31.2219L44.9204 35.0469V37.5331H54.1642Z" fill="#1E293B"/>
<path d="M44.9204 29.0555C47.5611 29.0555 49.7017 26.9148 49.7017 24.2742C49.7017 21.6336 47.5611 19.493 44.9204 19.493C42.2797 19.493 40.1392 21.6336 40.1392 24.2742C40.1392 26.9148 42.2797 29.0555 44.9204 29.0555Z" fill="#D9E7FC"/>
</svg>
