<svg width="68" height="68" viewBox="0 0 68 68" fill="none" xmlns="http://www.w3.org/2000/svg">
<rect y="3" width="68" height="63" rx="8" fill="#F9F9FB"/>
<path d="M35.4583 15.6541H32.5416V21.4874H35.4583V15.6541Z" fill="#125BC9"/>
<path d="M22.0617 19.994L19.9994 22.0565L24.1242 26.1812L26.1866 24.1188L22.0617 19.994Z" fill="#125BC9"/>
<path d="M21.4874 32.5417H15.6541V35.4583H21.4874V32.5417Z" fill="#125BC9"/>
<path d="M24.1206 41.8127L19.9955 45.9373L22.0577 47.9998L26.1828 43.8754L24.1206 41.8127Z" fill="#125BC9"/>
<path d="M35.4583 46.5125H32.5416V52.3458H35.4583V46.5125Z" fill="#125BC9"/>
<path d="M43.8754 41.8178L41.813 43.8803L45.9379 48.0049L48.0003 45.9425L43.8754 41.8178Z" fill="#125BC9"/>
<path d="M52.3458 32.5417H46.5125V35.4583H52.3458V32.5417Z" fill="#125BC9"/>
<path d="M45.9432 19.9981L41.8181 24.1226L43.8803 26.1852L48.0054 22.0607L45.9432 19.9981Z" fill="#125BC9"/>
<path d="M34 44.5C39.799 44.5 44.5 39.799 44.5 34C44.5 28.201 39.799 23.5 34 23.5C28.201 23.5 23.5 28.201 23.5 34C23.5 39.799 28.201 44.5 34 44.5Z" fill="#1E293B"/>
<path d="M28.75 43.0932C26.7497 41.9385 25.186 40.1563 24.3011 38.0227C23.4162 35.8891 23.2595 33.5233 23.8553 31.2917C24.451 29.0602 25.766 27.0873 27.5965 25.6787C29.4269 24.27 31.6709 23.5043 33.9806 23.5C36.2904 23.4957 38.5369 24.2532 40.3728 25.655C42.2084 27.0569 43.5307 29.0249 44.1346 31.2541C44.7387 33.4836 44.5908 35.8499 43.7137 37.9867C42.8368 40.1236 41.2798 41.9114 39.2836 43.0739L36.3942 38.1118C37.2986 37.5849 38.0042 36.7748 38.4016 35.8065C38.7992 34.8384 38.8662 33.766 38.5925 32.7559C38.3188 31.7455 37.7196 30.8537 36.8877 30.2186C36.0559 29.5832 35.0379 29.2401 33.9911 29.242C32.9446 29.2439 31.9278 29.5909 31.0983 30.2293C30.2688 30.8675 29.6728 31.7616 29.4031 32.7729C29.133 33.7839 29.204 34.8561 29.6049 35.8228C30.006 36.7897 30.7147 37.5973 31.6209 38.1207L28.75 43.0932Z" fill="url(#paint0_linear_678_3551)"/>
<defs>
<linearGradient id="paint0_linear_678_3551" x1="34" y1="23.5" x2="34" y2="44.5" gradientUnits="userSpaceOnUse">
<stop stop-color="#125BC9"/>
</linearGradient>
</defs>
</svg>
