<svg width="22" height="21" viewBox="0 0 22 21" fill="none" xmlns="http://www.w3.org/2000/svg">
<path d="M9.9657 18.2041L9.96462 18.2031C7.15228 15.6529 4.87883 13.5896 3.29943 11.6587C1.72865 9.73826 0.922852 8.04026 0.922852 6.2335C0.922852 3.30188 3.21594 1.00879 6.14756 1.00879C7.81065 1.00879 9.41857 1.78665 10.4649 3.01543L11.036 3.68598L11.607 3.01543C12.6534 1.78665 14.2613 1.00879 15.9244 1.00879C18.856 1.00879 21.1491 3.30188 21.1491 6.2335C21.1491 8.04028 20.3433 9.7383 18.7723 11.6602C17.1932 13.5922 14.9205 15.6575 12.1091 18.2123L12.1083 18.213L12.1067 18.2145L11.0379 19.1801L9.9657 18.2041Z" stroke="black" stroke-width="1.5"/>
</svg>
